<svg width="2057" height="1995" viewBox="0 0 2057 1995" fill="none" xmlns="http://www.w3.org/2000/svg">
<path d="M907.087 198.04C1294.44 88.6656 1697.11 314.008 1806.48 701.356C1915.86 1088.7 1742.01 1673.73 1354.66 1783.11C967.31 1892.48 307.415 1542.88 198.04 1155.53C88.6655 768.18 519.739 307.415 907.087 198.04Z" fill="url(#paint0_radial)"/>
<path d="M853.22 431C864.44 431 873.313 433.823 879.84 439.47C886.367 445.043 889.63 453.037 889.63 463.45H866.42C866.42 459.05 865.247 455.567 862.9 453C860.627 450.433 857.363 449.15 853.11 449.15C848.197 449.15 844.567 450.69 842.22 453.77C839.947 456.85 838.81 461.14 838.81 466.64V473.68C838.81 479.107 839.947 483.397 842.22 486.55C844.567 489.63 848.123 491.17 852.89 491.17C857.583 491.17 861.14 489.96 863.56 487.54C865.98 485.12 867.19 481.71 867.19 477.31H889.63C889.63 487.65 886.44 495.57 880.06 501.07C873.753 506.57 864.807 509.32 853.22 509.32C840.313 509.32 830.523 506.02 823.85 499.42C817.25 492.82 813.95 483.067 813.95 470.16C813.95 457.253 817.25 447.5 823.85 440.9C830.523 434.3 840.313 431 853.22 431ZM936.525 448.49C938.212 448.49 939.715 448.71 941.035 449.15C942.355 449.517 943.015 449.737 943.015 449.81V468.18H935.975C931.429 468.18 928.129 469.353 926.075 471.7C924.095 474.047 923.105 477.53 923.105 482.15V508H901.215V449.92H919.145L920.575 458.72C921.895 455.347 923.985 452.817 926.845 451.13C929.705 449.37 932.932 448.49 936.525 448.49ZM981.841 448.6C992.474 448.6 1000.58 451.093 1006.15 456.08C1011.8 461.067 1014.62 468.693 1014.62 478.96V482.7H971.061C971.061 486.88 971.978 490.033 973.811 492.16C975.718 494.287 978.688 495.35 982.721 495.35C986.388 495.35 989.064 494.58 990.751 493.04C992.511 491.5 993.391 489.447 993.391 486.88H1014.62C1014.62 493.92 1011.94 499.42 1006.59 503.38C1001.24 507.34 993.428 509.32 983.161 509.32C972.381 509.32 964.021 506.827 958.081 501.84C952.141 496.78 949.171 489.153 949.171 478.96C949.171 468.987 952.068 461.433 957.861 456.3C963.654 451.167 971.648 448.6 981.841 448.6ZM982.721 462.57C975.828 462.57 971.978 465.833 971.171 472.36H992.511C992.511 469.353 991.631 466.97 989.871 465.21C988.184 463.45 985.801 462.57 982.721 462.57ZM1053.89 448.6C1062.76 448.6 1069.99 450.103 1075.56 453.11C1081.13 456.043 1083.92 460.847 1083.92 467.52V490.18C1083.92 491.427 1084.21 492.453 1084.8 493.26C1085.39 494.067 1086.27 494.47 1087.44 494.47H1091.4V507.12C1091.18 507.267 1090.59 507.523 1089.64 507.89C1088.76 508.183 1087.48 508.477 1085.79 508.77C1084.1 509.137 1082.16 509.32 1079.96 509.32C1075.71 509.32 1072.19 508.697 1069.4 507.45C1066.69 506.13 1064.82 504.333 1063.79 502.06C1061 504.26 1057.89 506.02 1054.44 507.34C1050.99 508.66 1046.96 509.32 1042.34 509.32C1028.7 509.32 1021.88 503.893 1021.88 493.04C1021.88 487.393 1023.38 483.103 1026.39 480.17C1029.47 477.163 1033.87 475.11 1039.59 474.01C1045.31 472.91 1052.79 472.36 1062.03 472.36V469.5C1062.03 467.227 1061.22 465.503 1059.61 464.33C1058.07 463.157 1056.05 462.57 1053.56 462.57C1051.29 462.57 1049.31 462.973 1047.62 463.78C1046.01 464.587 1045.2 465.87 1045.2 467.63V468.07H1023.64C1023.57 467.703 1023.53 467.19 1023.53 466.53C1023.53 461.03 1026.13 456.667 1031.34 453.44C1036.62 450.213 1044.14 448.6 1053.89 448.6ZM1062.03 482.7C1055.8 482.7 1051.18 483.397 1048.17 484.79C1045.24 486.11 1043.77 487.907 1043.77 490.18C1043.77 493.847 1046.26 495.68 1051.25 495.68C1054.11 495.68 1056.6 494.91 1058.73 493.37C1060.93 491.83 1062.03 489.923 1062.03 487.65V482.7ZM1135.44 449.92V464.77H1123.12V486.88C1123.12 489.52 1123.56 491.463 1124.44 492.71C1125.32 493.883 1126.94 494.47 1129.28 494.47H1135.44V507.34C1133.68 507.927 1131.41 508.403 1128.62 508.77C1125.84 509.137 1123.42 509.32 1121.36 509.32C1114.91 509.32 1109.92 508.147 1106.4 505.8C1102.96 503.453 1101.23 499.457 1101.23 493.81V464.77H1093.09V449.92H1102.11L1106.84 432.32H1123.12V449.92H1135.44ZM1175.63 448.6C1186.26 448.6 1194.37 451.093 1199.94 456.08C1205.59 461.067 1208.41 468.693 1208.41 478.96V482.7H1164.85C1164.85 486.88 1165.77 490.033 1167.6 492.16C1169.51 494.287 1172.48 495.35 1176.51 495.35C1180.18 495.35 1182.85 494.58 1184.54 493.04C1186.3 491.5 1187.18 489.447 1187.18 486.88H1208.41C1208.41 493.92 1205.73 499.42 1200.38 503.38C1195.03 507.34 1187.22 509.32 1176.95 509.32C1166.17 509.32 1157.81 506.827 1151.87 501.84C1145.93 496.78 1142.96 489.153 1142.96 478.96C1142.96 468.987 1145.86 461.433 1151.65 456.3C1157.44 451.167 1165.44 448.6 1175.63 448.6ZM1176.51 462.57C1169.62 462.57 1165.77 465.833 1164.96 472.36H1186.3C1186.3 469.353 1185.42 466.97 1183.66 465.21C1181.97 463.45 1179.59 462.57 1176.51 462.57Z" fill="#2E4A44"/>
<path d="M820.97 949.53C820.97 954.15 819.723 958.33 817.23 962.07C814.737 965.81 811.107 968.56 806.34 970.32L823.17 1002H795.89L782.47 974.39H773.45V1002H749.14V926.32H795.45C800.877 926.32 805.497 927.383 809.31 929.51C813.197 931.563 816.093 934.387 818 937.98C819.98 941.5 820.97 945.35 820.97 949.53ZM796.22 950.52C796.22 948.54 795.56 946.89 794.24 945.57C792.92 944.25 791.307 943.59 789.4 943.59H773.45V957.56H789.4C791.307 957.56 792.92 956.9 794.24 955.58C795.56 954.187 796.22 952.5 796.22 950.52ZM860.452 942.6C871.086 942.6 879.189 945.093 884.762 950.08C890.409 955.067 893.232 962.693 893.232 972.96V976.7H849.672C849.672 980.88 850.589 984.033 852.422 986.16C854.329 988.287 857.299 989.35 861.332 989.35C864.999 989.35 867.676 988.58 869.362 987.04C871.122 985.5 872.002 983.447 872.002 980.88H893.232C893.232 987.92 890.556 993.42 885.202 997.38C879.849 1001.34 872.039 1003.32 861.772 1003.32C850.992 1003.32 842.632 1000.83 836.692 995.84C830.752 990.78 827.782 983.153 827.782 972.96C827.782 962.987 830.679 955.433 836.472 950.3C842.266 945.167 850.259 942.6 860.452 942.6ZM861.332 956.57C854.439 956.57 850.589 959.833 849.782 966.36H871.122C871.122 963.353 870.242 960.97 868.482 959.21C866.796 957.45 864.412 956.57 861.332 956.57ZM925.681 949.97C928.028 947.623 930.778 945.827 933.931 944.58C937.085 943.26 940.385 942.6 943.831 942.6C950.578 942.6 955.638 944.47 959.011 948.21C962.385 951.95 964.071 957.34 964.071 964.38V1002H942.181V967.02C942.181 964.527 941.521 962.547 940.201 961.08C938.955 959.54 937.158 958.77 934.811 958.77C932.098 958.77 929.898 959.65 928.211 961.41C926.525 963.17 925.681 965.333 925.681 967.9V1002H903.791V922.25H925.681V949.97ZM1007.19 942.6C1017.82 942.6 1025.93 945.093 1031.5 950.08C1037.15 955.067 1039.97 962.693 1039.97 972.96V976.7H996.411C996.411 980.88 997.327 984.033 999.161 986.16C1001.07 988.287 1004.04 989.35 1008.07 989.35C1011.74 989.35 1014.41 988.58 1016.1 987.04C1017.86 985.5 1018.74 983.447 1018.74 980.88H1039.97C1039.97 987.92 1037.29 993.42 1031.94 997.38C1026.59 1001.34 1018.78 1003.32 1008.51 1003.32C997.731 1003.32 989.371 1000.83 983.431 995.84C977.491 990.78 974.521 983.153 974.521 972.96C974.521 962.987 977.417 955.433 983.211 950.3C989.004 945.167 996.997 942.6 1007.19 942.6ZM1008.07 956.57C1001.18 956.57 997.327 959.833 996.521 966.36H1017.86C1017.86 963.353 1016.98 960.97 1015.22 959.21C1013.53 957.45 1011.15 956.57 1008.07 956.57ZM1079.24 942.6C1088.11 942.6 1095.34 944.103 1100.91 947.11C1106.48 950.043 1109.27 954.847 1109.27 961.52V984.18C1109.27 985.427 1109.56 986.453 1110.15 987.26C1110.74 988.067 1111.62 988.47 1112.79 988.47H1116.75V1001.12C1116.53 1001.27 1115.94 1001.52 1114.99 1001.89C1114.11 1002.18 1112.83 1002.48 1111.14 1002.77C1109.45 1003.14 1107.51 1003.32 1105.31 1003.32C1101.06 1003.32 1097.54 1002.7 1094.75 1001.45C1092.04 1000.13 1090.17 998.333 1089.14 996.06C1086.35 998.26 1083.24 1000.02 1079.79 1001.34C1076.34 1002.66 1072.31 1003.32 1067.69 1003.32C1054.05 1003.32 1047.23 997.893 1047.23 987.04C1047.23 981.393 1048.73 977.103 1051.74 974.17C1054.82 971.163 1059.22 969.11 1064.94 968.01C1070.66 966.91 1078.14 966.36 1087.38 966.36V963.5C1087.38 961.227 1086.57 959.503 1084.96 958.33C1083.42 957.157 1081.4 956.57 1078.91 956.57C1076.64 956.57 1074.66 956.973 1072.97 957.78C1071.36 958.587 1070.55 959.87 1070.55 961.63V962.07H1048.99C1048.92 961.703 1048.88 961.19 1048.88 960.53C1048.88 955.03 1051.48 950.667 1056.69 947.44C1061.97 944.213 1069.49 942.6 1079.24 942.6ZM1087.38 976.7C1081.15 976.7 1076.53 977.397 1073.52 978.79C1070.59 980.11 1069.12 981.907 1069.12 984.18C1069.12 987.847 1071.61 989.68 1076.6 989.68C1079.46 989.68 1081.95 988.91 1084.08 987.37C1086.28 985.83 1087.38 983.923 1087.38 981.65V976.7ZM1159.21 942.49C1160.9 942.49 1162.4 942.71 1163.72 943.15C1165.04 943.517 1165.7 943.737 1165.7 943.81V962.18H1158.66C1154.11 962.18 1150.81 963.353 1148.76 965.7C1146.78 968.047 1145.79 971.53 1145.79 976.15V1002H1123.9V943.92H1141.83L1143.26 952.72C1144.58 949.347 1146.67 946.817 1149.53 945.13C1152.39 943.37 1155.62 942.49 1159.21 942.49ZM1203.18 942.6C1210.95 942.6 1217.52 944.14 1222.87 947.22C1228.3 950.227 1231.01 954.92 1231.01 961.3H1210.66C1210.66 959.173 1209.71 957.67 1207.8 956.79C1206.48 956.057 1204.83 955.69 1202.85 955.69C1197.57 955.69 1194.93 956.937 1194.93 959.43C1194.93 960.823 1195.85 961.813 1197.68 962.4C1199.51 962.987 1202.52 963.61 1206.7 964.27C1211.83 965.003 1216.12 965.883 1219.57 966.91C1223.02 967.863 1226.02 969.623 1228.59 972.19C1231.16 974.683 1232.44 978.203 1232.44 982.75C1232.44 990.157 1229.65 995.437 1224.08 998.59C1218.58 1001.74 1211.36 1003.32 1202.41 1003.32C1197.28 1003.32 1192.44 1002.62 1187.89 1001.23C1183.34 999.763 1179.64 997.527 1176.78 994.52C1173.92 991.513 1172.49 987.7 1172.49 983.08H1192.84V983.52C1192.91 986.013 1193.94 987.773 1195.92 988.8C1197.97 989.753 1200.14 990.23 1202.41 990.23C1208.5 990.23 1211.54 988.8 1211.54 985.94C1211.54 984.473 1210.59 983.41 1208.68 982.75C1206.77 982.09 1203.66 981.393 1199.33 980.66C1194.12 979.78 1189.83 978.827 1186.46 977.8C1183.16 976.773 1180.26 975.05 1177.77 972.63C1175.28 970.137 1174.03 966.69 1174.03 962.29C1174.03 955.177 1176.71 950.117 1182.06 947.11C1187.49 944.103 1194.53 942.6 1203.18 942.6ZM1272.84 942.6C1283.48 942.6 1291.58 945.093 1297.15 950.08C1302.8 955.067 1305.62 962.693 1305.62 972.96V976.7H1262.06C1262.06 980.88 1262.98 984.033 1264.81 986.16C1266.72 988.287 1269.69 989.35 1273.72 989.35C1277.39 989.35 1280.07 988.58 1281.75 987.04C1283.51 985.5 1284.39 983.447 1284.39 980.88H1305.62C1305.62 987.92 1302.95 993.42 1297.59 997.38C1292.24 1001.34 1284.43 1003.32 1274.16 1003.32C1263.38 1003.32 1255.02 1000.83 1249.08 995.84C1243.14 990.78 1240.17 983.153 1240.17 972.96C1240.17 962.987 1243.07 955.433 1248.86 950.3C1254.66 945.167 1262.65 942.6 1272.84 942.6ZM1273.72 956.57C1266.83 956.57 1262.98 959.833 1262.17 966.36H1283.51C1283.51 963.353 1282.63 960.97 1280.87 959.21C1279.19 957.45 1276.8 956.57 1273.72 956.57Z" fill="#2E4A44"/>
<path d="M825.6 1420.32C830.293 1420.32 834.473 1421.42 838.14 1423.62C841.807 1425.75 844.667 1428.72 846.72 1432.53C848.773 1436.27 849.8 1440.49 849.8 1445.18V1446.61C849.8 1451.31 848.773 1455.56 846.72 1459.37C844.667 1463.19 841.807 1466.19 838.14 1468.39C834.473 1470.52 830.293 1471.58 825.6 1471.58H807.45V1496H783.14V1420.32H825.6ZM807.45 1453.87H817.46C820.027 1453.87 821.933 1453.21 823.18 1451.89C824.5 1450.57 825.16 1448.78 825.16 1446.5V1445.62C825.16 1443.28 824.5 1441.48 823.18 1440.23C821.933 1438.91 820.027 1438.25 817.46 1438.25H807.45V1453.87ZM888.114 1436.6C898.748 1436.6 906.851 1439.1 912.424 1444.08C918.071 1449.07 920.894 1456.7 920.894 1466.96V1470.7H877.334C877.334 1474.88 878.251 1478.04 880.084 1480.16C881.991 1482.29 884.961 1483.35 888.994 1483.35C892.661 1483.35 895.338 1482.58 897.024 1481.04C898.784 1479.5 899.664 1477.45 899.664 1474.88H920.894C920.894 1481.92 918.218 1487.42 912.864 1491.38C907.511 1495.34 899.701 1497.32 889.434 1497.32C878.654 1497.32 870.294 1494.83 864.354 1489.84C858.414 1484.78 855.444 1477.16 855.444 1466.96C855.444 1456.99 858.341 1449.44 864.134 1444.3C869.928 1439.17 877.921 1436.6 888.114 1436.6ZM888.994 1450.57C882.101 1450.57 878.251 1453.84 877.444 1460.36H898.784C898.784 1457.36 897.904 1454.97 896.144 1453.21C894.458 1451.45 892.074 1450.57 888.994 1450.57ZM966.764 1436.49C968.45 1436.49 969.954 1436.71 971.274 1437.15C972.594 1437.52 973.254 1437.74 973.254 1437.81V1456.18H966.214C961.667 1456.18 958.367 1457.36 956.314 1459.7C954.334 1462.05 953.344 1465.53 953.344 1470.15V1496H931.454V1437.92H949.384L950.814 1446.72C952.134 1443.35 954.224 1440.82 957.084 1439.13C959.944 1437.37 963.17 1436.49 966.764 1436.49ZM1003.98 1414.93C1005.59 1414.93 1007.61 1415.15 1010.03 1415.59C1012.45 1415.96 1014.39 1416.4 1015.86 1416.91V1429.78H1010.8C1008.45 1429.78 1006.84 1430.22 1005.96 1431.1C1005.08 1431.98 1004.64 1433.49 1004.64 1435.61V1437.92H1015.86V1452.77H1004.64V1496H982.75V1452.77H974.61V1437.92H982.75V1435.5C982.75 1428.02 984.584 1422.74 988.25 1419.66C991.917 1416.51 997.16 1414.93 1003.98 1414.93ZM1051.29 1436.6C1061.48 1436.6 1069.47 1439.21 1075.27 1444.41C1081.13 1449.55 1084.07 1457.06 1084.07 1466.96C1084.07 1476.86 1081.13 1484.42 1075.27 1489.62C1069.47 1494.76 1061.48 1497.32 1051.29 1497.32C1041.09 1497.32 1033.1 1494.76 1027.31 1489.62C1021.51 1484.49 1018.62 1476.94 1018.62 1466.96C1018.62 1456.99 1021.51 1449.44 1027.31 1444.3C1033.1 1439.17 1041.09 1436.6 1051.29 1436.6ZM1051.29 1451.45C1044.1 1451.45 1040.51 1455.6 1040.51 1463.88V1470.15C1040.51 1478.37 1044.1 1482.47 1051.29 1482.47C1058.55 1482.47 1062.18 1478.37 1062.18 1470.15V1463.88C1062.18 1455.6 1058.55 1451.45 1051.29 1451.45ZM1129.94 1436.49C1131.62 1436.49 1133.13 1436.71 1134.45 1437.15C1135.77 1437.52 1136.43 1437.74 1136.43 1437.81V1456.18H1129.39C1124.84 1456.18 1121.54 1457.36 1119.49 1459.7C1117.51 1462.05 1116.52 1465.53 1116.52 1470.15V1496H1094.63V1437.92H1112.56L1113.99 1446.72C1115.31 1443.35 1117.4 1440.82 1120.26 1439.13C1123.12 1437.37 1126.34 1436.49 1129.94 1436.49ZM1226.09 1436.6C1232.69 1436.6 1237.64 1438.51 1240.94 1442.32C1244.24 1446.06 1245.89 1451.42 1245.89 1458.38V1496H1224V1461.02C1224 1458.53 1223.38 1456.55 1222.13 1455.08C1220.96 1453.54 1219.27 1452.77 1217.07 1452.77C1214.51 1452.77 1212.42 1453.65 1210.8 1455.41C1209.19 1457.17 1208.38 1459.34 1208.38 1461.9V1496H1186.49V1461.02C1186.49 1458.53 1185.87 1456.55 1184.62 1455.08C1183.45 1453.54 1181.76 1452.77 1179.56 1452.77C1177 1452.77 1174.91 1453.65 1173.29 1455.41C1171.68 1457.17 1170.87 1459.34 1170.87 1461.9V1496H1148.98V1437.92H1166.91L1168.34 1446.61C1170.54 1443.53 1173.44 1441.11 1177.03 1439.35C1180.7 1437.52 1184.55 1436.6 1188.58 1436.6C1197.31 1436.6 1203.18 1439.94 1206.18 1446.61C1208.46 1443.53 1211.35 1441.11 1214.87 1439.35C1218.47 1437.52 1222.21 1436.6 1226.09 1436.6Z" fill="#2E4A44"/>
<path d="M1022.7 842.303C1025.62 845.232 1030.37 845.232 1033.3 842.303L1081.03 794.574C1083.96 791.645 1083.96 786.896 1081.03 783.967C1078.1 781.038 1073.35 781.038 1070.43 783.967L1028 826.393L985.573 783.967C982.644 781.038 977.895 781.038 974.966 783.967C972.037 786.896 972.037 791.645 974.966 794.574L1022.7 842.303ZM1020.5 604V837H1035.5V604H1020.5Z" fill="#2E4A44"/>
<path d="M1022.7 1334.31C1025.62 1337.23 1030.37 1337.23 1033.3 1334.31L1081.03 1286.58C1083.96 1283.65 1083.96 1278.9 1081.03 1275.97C1078.1 1273.04 1073.35 1273.04 1070.43 1275.97L1028 1318.4L985.573 1275.97C982.644 1273.04 977.895 1273.04 974.966 1275.97C972.037 1278.9 972.037 1283.65 974.966 1286.58L1022.7 1334.31ZM1020.5 1096V1329H1035.5V1096H1020.5Z" fill="#2E4A44"/>
<defs>
<radialGradient id="paint0_radial" cx="0" cy="0" r="1" gradientUnits="userSpaceOnUse" gradientTransform="translate(1093.44 1060.84) rotate(74.232) scale(718.188 739.529)">
<stop offset="0.302083" stop-color="#5BE068" stop-opacity="0.36"/>
<stop offset="1" stop-color="#00CB9A" stop-opacity="0.64"/>
</radialGradient>
</defs>
</svg>
