<svg width="170" height="173" viewBox="0 0 170 173" fill="none" xmlns="http://www.w3.org/2000/svg">
<path d="M170 98.8721C170 139.812 136.322 173 94.7788 173C53.2352 173 0 139.812 0 98.8721C0 57.9324 53.2352 3 94.7788 3C136.322 3 170 57.9324 170 98.8721Z" fill="url(#paint0_radial)"/>
<path d="M60 46C59.4477 46 59 46.4477 59 47V128C59 128.552 59.4477 129 60 129H110C110.552 129 111 128.552 111 128V108.574C111 108.022 110.552 107.574 110 107.574H73.2486V97.2122H103.956C104.508 97.2122 104.956 96.7645 104.956 96.2122V77.6105C104.956 77.0582 104.508 76.6105 103.956 76.6105H73.2486V67.4259H109.306C109.859 67.4259 110.306 66.9782 110.306 66.4259V47C110.306 46.4477 109.859 46 109.306 46H60Z" fill="#2E4A44" stroke="#2E4A44" stroke-width="2" stroke-linecap="round" stroke-linejoin="round"/>
<defs>
<radialGradient id="paint0_radial" cx="0" cy="0" r="1" gradientUnits="userSpaceOnUse" gradientTransform="translate(79.0698 93.2655) rotate(-180) scale(74.1279 75.2212)">
<stop offset="0.302083" stop-color="#5BE068" stop-opacity="0.36"/>
<stop offset="1" stop-color="#00CB9A" stop-opacity="0.64"/>
</radialGradient>
</defs>
</svg>
