<svg width="170" height="173" viewBox="0 0 170 173" fill="none" xmlns="http://www.w3.org/2000/svg">
<path d="M170 98.8721C170 139.812 136.322 173 94.7788 173C53.2352 173 0 139.812 0 98.8721C0 57.9324 53.2352 3 94.7788 3C136.322 3 170 57.9324 170 98.8721Z" fill="url(#paint0_radial)"/>
<path d="M49.5245 65.517C49.0387 65.7796 48.8577 66.3864 49.1203 66.8722L83.8305 131.092C84.0931 131.578 84.6999 131.759 85.1857 131.496L124.773 110.1C125.259 109.837 125.44 109.23 125.178 108.744L116.853 93.3429C116.591 92.857 115.984 92.676 115.498 92.9386L86.488 108.618L82.1416 100.577L106.366 87.4836C106.852 87.221 107.033 86.6142 106.77 86.1284L98.7991 71.3802C98.5365 70.8943 97.9298 70.7133 97.4439 70.9759L73.2194 84.0691L69.3775 76.9609L97.8384 61.5781C98.3242 61.3155 98.5052 60.7088 98.2426 60.2229L89.9182 44.8213C89.6556 44.3355 89.0488 44.1545 88.563 44.4171L49.5245 65.517Z" fill="#2E4A44" stroke="#2E4A44" stroke-width="2" stroke-linecap="round" stroke-linejoin="round"/>
<defs>
<radialGradient id="paint0_radial" cx="0" cy="0" r="1" gradientUnits="userSpaceOnUse" gradientTransform="translate(79.0698 93.2655) rotate(-180) scale(74.1279 75.2212)">
<stop offset="0.302083" stop-color="#5BE068" stop-opacity="0.36"/>
<stop offset="1" stop-color="#00CB9A" stop-opacity="0.64"/>
</radialGradient>
</defs>
</svg>
