<svg width="200" height="200" viewBox="0 0 200 200" fill="none" xmlns="http://www.w3.org/2000/svg">
<rect width="200" height="200" fill="white"/>
<path d="M180.5 111C180.5 152.421 146.921 186 105.5 186C64.0786 186 11 152.421 11 111C11 69.5786 64.0786 14 105.5 14C146.921 14 180.5 69.5786 180.5 111Z" fill="url(#paint0_radial)"/>
<path d="M81.0419 73.7365C90.0239 64.7545 104.587 64.7545 113.569 73.7366L157.232 117.4C158.794 118.962 158.794 121.495 157.232 123.057L156.766 123.523C150.908 129.381 141.411 129.381 135.553 123.523L107.069 95.0383C104.324 92.2931 99.8729 92.2931 97.1278 95.0383C94.3826 97.7835 94.3826 102.234 97.1278 104.979L113.716 121.568C115.264 123.115 115.264 125.625 113.716 127.172C107.912 132.976 98.5023 132.976 92.6985 127.172L85.9171 120.391C82.0119 116.486 75.6802 116.486 71.775 120.391L68.6436 123.522C62.7857 129.38 53.2882 129.38 47.4304 123.522L42.1716 118.264C40.6095 116.702 40.6095 114.169 42.1716 112.607L81.0419 73.7365Z" fill="#2E4A44"/>
<defs>
<radialGradient id="paint0_radial" cx="0" cy="0" r="1" gradientUnits="userSpaceOnUse" gradientTransform="translate(89.8372 105.327) rotate(-180) scale(73.9099 76.1062)">
<stop offset="0.302083" stop-color="#5BE068" stop-opacity="0.36"/>
<stop offset="1" stop-color="#00CB9A" stop-opacity="0.64"/>
</radialGradient>
</defs>
</svg>
