<svg width="78" height="78" viewBox="0 0 78 78" fill="none" xmlns="http://www.w3.org/2000/svg">
<rect width="78" height="78" fill="#2E4A44"/>
<path d="M78 78H0V0H78V78ZM29.952 58.812C48.3405 58.812 58.4025 43.563 58.4025 30.3615C58.4025 29.9325 58.4025 29.5035 58.383 29.0745C60.333 27.6705 62.0295 25.896 63.375 23.8875C61.581 24.687 59.6505 25.2135 57.6225 25.467C59.6895 24.2385 61.269 22.269 62.0295 19.929C60.099 21.0795 57.954 21.8985 55.6725 22.347C53.8395 20.397 51.246 19.188 48.3795 19.188C42.861 19.188 38.376 23.673 38.376 29.1915C38.376 29.9715 38.4735 30.732 38.6295 31.473C30.3225 31.0635 22.9515 27.066 18.018 21.021C17.16 22.503 16.6725 24.219 16.6725 26.052C16.6725 29.523 18.447 32.5845 21.1185 34.3785C19.4805 34.32 17.94 33.8715 16.5945 33.1305C16.5945 33.1695 16.5945 33.2085 16.5945 33.267C16.5945 38.103 20.046 42.159 24.609 43.0755C23.7705 43.3095 22.893 43.4265 21.9765 43.4265C21.333 43.4265 20.709 43.368 20.1045 43.251C21.372 47.229 25.077 50.115 29.445 50.193C26.013 52.884 21.7035 54.483 17.0235 54.483C16.224 54.483 15.4245 54.444 14.6445 54.3465C19.0515 57.1545 24.3165 58.812 29.952 58.812Z" fill="white"/>
</svg>
